<?xml version="1.0" encoding="utf-8"?>
<!-- Generator: Adobe Illustrator 18.0.0, SVG Export Plug-In . SVG Version: 6.00 Build 0)  -->
<!DOCTYPE svg PUBLIC "-//W3C//DTD SVG 1.1//EN" "http://www.w3.org/Graphics/SVG/1.1/DTD/svg11.dtd">
<svg version="1.1" id="Layer_1" xmlns="http://www.w3.org/2000/svg" xmlns:xlink="http://www.w3.org/1999/xlink" x="0px" y="0px"
	 viewBox="0 0 512 512" enable-background="new 0 0 512 512" xml:space="preserve">
<path d="M430.4,351.5l-98.2-89.3c-12.1-10.9-19-26.3-19-42.3V68.5H198.8v151.4c0,16-6.9,31.4-19,42.3l-96.4,87.4l-1.8,1.9
	c-14.1,16.8-17.1,39.5-7.9,59.2c9.4,20.2,29.4,32.8,52,32.8h260.5c22.6,0,42.5-12.6,52-32.8C447.4,390.9,444.4,368.2,430.4,351.5z
	 M236.3,219.9V106h39.3v113.9c0,26.5,11.4,52.1,31.3,70.1l3.8,3.4H201.3l3.8-3.4C224.9,272,236.3,246.4,236.3,219.9z M404.2,394.8
	c-3.3,7-10,11.2-18,11.2H125.7c-8,0-14.7-4.2-18-11.2c-1.4-3-3.9-10.7,1.9-18.4l50.2-45.5h192.3l50.2,45.5
	C408.2,384.1,405.6,391.8,404.2,394.8z"/>
</svg>
